<svg xmlns="http://www.w3.org/2000/svg" xmlns:svg="http://www.w3.org/2000/svg" id="svg60" width="146.077" height="146.068" version="1.1" viewBox="0 0 38.649 38.647"><metadata id="metadata57"/><g id="layer1" transform="translate(-9.5318744,-55.549908)"><rect style="font-style:normal;font-weight:400;font-size:50.8px;line-height:1.25;font-family:sans-serif;fill:#fff;fill-opacity:1;stroke:none;stroke-width:2.35166;stroke-miterlimit:4;stroke-dasharray:none;stroke-opacity:1" id="rect874" width="38.649" height="38.647" x="9.655" y="55.62" ry="7.902"/><g id="text64" aria-label="rute" transform="matrix(0.94122201,0,0,0.94213505,34.490709,12.04474)" style="font-style:normal;font-weight:400;font-size:50.8px;line-height:1.25;font-family:sans-serif;fill:#020268;fill-opacity:1;stroke:#020268;stroke-width:.264583;stroke-opacity:1"><path style="font-style:normal;font-variant:normal;font-weight:400;font-stretch:normal;font-size:50.8px;font-family:Giorgio;-inkscape-font-specification:Giorgio;fill:#020268;fill-opacity:1;stroke:#020268;stroke-width:.264583;stroke-opacity:1" id="path962" d="m -7.9398394,66.84311 q 0,-6.5532 3.403601,-10.2108 3.4036,-3.7084 9.4995999,-3.7084 v 3.556 q -4.57199996,0 -6.9595999,2.6924 -2.3876,2.6416 -2.3876,7.6708 v 13.6144 h -3.556001 z"/></g><path id="path66" d="m 34.356613,85.339753 a 5.5,5.5 0 0 1 -5.5,5.5 5.5,5.5 0 0 1 -5.5,-5.5 5.5,5.5 0 0 1 5.5,-5.5 5.5,5.5 0 0 1 5.5,5.5 z" style="fill:#020268;fill-opacity:1;stroke-width:.14552"/></g></svg>