<svg xmlns="http://www.w3.org/2000/svg" xmlns:svg="http://www.w3.org/2000/svg" id="svg60" width="367.84" height="154.776" version="1.1" viewBox="0 0 97.324 40.951"><metadata id="metadata57"/><g id="layer1" transform="translate(-8.520833,-54.164891)"><g id="g926"><g id="text64" aria-label="rute" transform="translate(-0.66817382,0.23503531)" style="font-style:normal;font-weight:400;font-size:50.8px;line-height:1.25;font-family:sans-serif;fill:#020268;fill-opacity:1;stroke:none;stroke-width:.264583"><path style="font-style:normal;font-variant:normal;font-weight:400;font-stretch:normal;font-size:50.8px;font-family:Giorgio;-inkscape-font-specification:Giorgio;fill:#020268;fill-opacity:1;stroke-width:.264583" id="path962" d="m 12.525828,80.123691 q 0,-6.5532 3.4036,-10.2108 3.4036,-3.7084 9.4996,-3.7084 v 3.556 q -4.572,0 -6.9596,2.6924 -2.3876,2.6416 -2.3876,7.6708 v 13.6144 h -3.556 z"/><path style="font-style:normal;font-variant:normal;font-weight:400;font-stretch:normal;font-size:50.8px;font-family:Giorgio;-inkscape-font-specification:Giorgio;fill:#020268;fill-opacity:1;stroke-width:.264583" id="path964" d="m 41.075335,93.992091 q -5.3848,0 -8.382,-3.6576 -2.9972,-3.6576 -2.9972,-10.2616 v -13.3604 h 3.556 v 13.3604 q 0,1.4732 0.254,3.2512 0.254,1.778 1.0668,3.4036 0.8636,1.5748 2.3876,2.6416 1.5748,1.0668 4.1148,1.0668 2.54,0 4.064,-1.0668 1.5748,-1.0668 2.3876,-2.6416 0.8636,-1.6256 1.1176,-3.4036 0.254,-1.778 0.254,-3.2512 v -13.3604 h 3.556 v 13.3604 q 0,6.604 -2.9972,10.2616 -2.9972,3.6576 -8.382,3.6576 z"/><path style="font-style:normal;font-variant:normal;font-weight:400;font-stretch:normal;font-size:50.8px;font-family:Giorgio;-inkscape-font-specification:Giorgio;fill:#020268;fill-opacity:1;stroke-width:.264583" id="path966" d="m 74.654095,66.509291 v 3.556 h -7.4676 v 23.6728 h -3.556 v -23.6728 h -7.4168 v -3.556 h 7.4168 v -12.3444 h 3.556 v 12.3444 z"/><path style="font-style:normal;font-variant:normal;font-weight:400;font-stretch:normal;font-size:50.8px;font-family:Giorgio;-inkscape-font-specification:Giorgio;fill:#020268;fill-opacity:1;stroke-width:.264583" id="path968" d="m 91.926073,66.153691 q 6.604,0 10.261597,3.7084 3.6576,3.6576 3.6576,10.2108 v 0.0508 q 0,0.762 -0.5588,1.27 -0.508,0.508 -1.2192,0.508 H 81.664473 q 0.4572,4.1656 3.048,6.35 2.5908,2.1844 7.1628,2.1844 4.9276,0 7.5692,-2.54 l 2.489197,2.54 q -3.708397,3.556 -10.058397,3.556 -6.5532,0 -10.2108,-3.6576 -3.6576,-3.6576 -3.6576,-10.2108 v -0.0508 q 0,-6.5532 3.6576,-10.2108 3.6576,-3.7084 10.2616,-3.7084 z m 10.312397,12.192 q -0.4572,-4.2164 -3.098797,-6.4008 -2.5908,-2.2352 -7.2136,-2.2352 -4.6228,0 -7.2644,2.2352 -2.5908,2.1844 -2.9972,6.4008 z"/></g><path id="path66" d="m 19.520833,89.616066 a 5.5,5.5 0 0 1 -5.5,5.5 5.5,5.5 0 0 1 -5.5,-5.5 5.5,5.5 0 0 1 5.5,-5.5 5.5,5.5 0 0 1 5.5,5.5 z" style="fill:#020268;fill-opacity:1;stroke-width:.14552"/><path id="path66-1" d="m 105.85971,89.791817 a 5.5,5.5 0 0 1 -5.5,5.5 5.5,5.5 0 0 1 -5.499999,-5.5 5.5,5.5 0 0 1 5.499999,-5.5 5.5,5.5 0 0 1 5.5,5.5 z" style="fill:#020268;fill-opacity:1;stroke-width:.14552"/></g></g></svg>